<svg width="20" height="20" fill="none" xmlns="http://www.w3.org/2000/svg"><path d="M5 .625a.625.625 0 0 0-1.25 0v.625H2.5A2.5 2.5 0 0 0 0 3.75V5h20V3.75a2.5 2.5 0 0 0-2.5-2.5h-1.25V.625a.625.625 0 1 0-1.25 0v.625H5V.625ZM20 17.5V6.25H0V17.5A2.5 2.5 0 0 0 2.5 20h15a2.5 2.5 0 0 0 2.5-2.5Zm-8.125-8.75h1.25a.625.625 0 0 1 .625.625v1.25a.624.624 0 0 1-.625.625h-1.25a.624.624 0 0 1-.625-.625v-1.25a.625.625 0 0 1 .625-.625Zm3.75 0h1.25a.625.625 0 0 1 .625.625v1.25a.624.624 0 0 1-.625.625h-1.25a.624.624 0 0 1-.625-.625v-1.25a.625.625 0 0 1 .625-.625ZM2.5 13.125a.625.625 0 0 1 .625-.625h1.25a.625.625 0 0 1 .625.625v1.25a.625.625 0 0 1-.625.625h-1.25a.625.625 0 0 1-.625-.625v-1.25Zm4.375-.625h1.25a.625.625 0 0 1 .625.625v1.25a.625.625 0 0 1-.625.625h-1.25a.625.625 0 0 1-.625-.625v-1.25a.625.625 0 0 1 .625-.625Z" fill="#fff"/></svg>