<svg width="20" height="19" fill="none" xmlns="http://www.w3.org/2000/svg"><g filter="url(#a)"><path d="M10 .25a6.883 6.883 0 0 0-6.875 6.875A6.806 6.806 0 0 0 4.51 11.25s.188.247.218.283L10 17.75l5.274-6.22c.028-.034.216-.28.216-.28v-.002a6.803 6.803 0 0 0 1.385-4.123A6.883 6.883 0 0 0 10 .25Zm0 9.375a2.5 2.5 0 1 1 0-5 2.5 2.5 0 0 1 0 5Z" fill="#fff"/></g><defs><filter id="a" x="-.875" y=".25" width="21.75" height="25.5" filterUnits="userSpaceOnUse" color-interpolation-filters="sRGB"><feFlood flood-opacity="0" result="BackgroundImageFix"/><feColorMatrix in="SourceAlpha" values="0 0 0 0 0 0 0 0 0 0 0 0 0 0 0 0 0 0 127 0" result="hardAlpha"/><feOffset dy="4"/><feGaussianBlur stdDeviation="2"/><feComposite in2="hardAlpha" operator="out"/><feColorMatrix values="0 0 0 0 0 0 0 0 0 0 0 0 0 0 0 0 0 0 0.25 0"/><feBlend in2="BackgroundImageFix" result="effect1_dropShadow_1_134"/><feBlend in="SourceGraphic" in2="effect1_dropShadow_1_134" result="shape"/></filter></defs></svg>